<svg xmlns="http://www.w3.org/2000/svg" xmlns:xlink="http://www.w3.org/1999/xlink" width="500" zoomAndPan="magnify" viewBox="0 0 375 374.999991" height="500" preserveAspectRatio="xMidYMid meet" version="1.0"><defs><g/><clipPath id="ea0e7d59b9"><path d="M 57.695312 101.925781 L 160.445312 101.925781 L 160.445312 221 L 57.695312 221 Z M 57.695312 101.925781 " clip-rule="nonzero"/></clipPath><clipPath id="cd74a371ee"><path d="M 91 247 L 127 247 L 127 253.425781 L 91 253.425781 Z M 91 247 " clip-rule="nonzero"/></clipPath></defs><path fill="#ffffff" d="M 103.625 160.089844 L 103.625 220.761719 L 114.425781 220.761719 L 114.425781 160.089844 L 109.023438 156.492188 L 103.625 160.089844 " fill-opacity="1" fill-rule="nonzero"/><path fill="#ffffff" d="M 113.867188 131.402344 L 109.023438 121.8125 L 104.183594 131.402344 C 105.648438 131.550781 107.261719 131.636719 109.023438 131.636719 C 110.785156 131.636719 112.402344 131.550781 113.867188 131.402344 " fill-opacity="1" fill-rule="nonzero"/><g clip-path="url(#ea0e7d59b9)"><path fill="#ffffff" d="M 82.015625 216.792969 L 82.015625 218.058594 C 82.015625 219.546875 83.230469 220.761719 84.71875 220.761719 L 87.417969 220.761719 L 87.417969 155.816406 C 87.417969 153.707031 87.914062 151.605469 88.863281 149.730469 L 104.921875 117.941406 C 105.710938 116.390625 107.285156 115.421875 109.023438 115.421875 C 110.765625 115.421875 112.335938 116.390625 113.128906 117.941406 L 129.1875 149.730469 C 130.136719 151.605469 130.632812 153.707031 130.632812 155.816406 L 130.632812 220.761719 L 133.332031 220.761719 C 134.820312 220.761719 136.03125 219.546875 136.03125 218.058594 L 136.03125 216.792969 C 136.03125 206.171875 140.167969 195.597656 147.660156 187.03125 C 155.835938 177.695312 160.339844 165.691406 160.339844 153.242188 C 160.339844 139.539062 155 126.65625 145.304688 116.960938 C 135.609375 107.265625 122.730469 101.925781 109.023438 101.925781 C 80.730469 101.925781 57.710938 124.945312 57.710938 153.242188 C 57.710938 165.691406 62.214844 177.695312 70.390625 187.03125 C 77.882812 195.597656 82.015625 206.171875 82.015625 216.792969 " fill-opacity="1" fill-rule="nonzero"/></g><path fill="#ffffff" d="M 125.230469 220.761719 L 125.230469 157.597656 L 119.828125 160.308594 L 119.828125 220.761719 L 125.230469 220.761719 " fill-opacity="1" fill-rule="nonzero"/><path fill="#ffffff" d="M 93.757812 152.027344 L 100.734375 155.519531 L 107.527344 150.996094 C 108.433594 150.394531 109.617188 150.394531 110.523438 150.996094 L 117.316406 155.519531 L 124.289062 152.027344 L 116.460938 136.53125 C 114.277344 136.867188 111.789062 137.039062 109.023438 137.039062 C 106.261719 137.039062 103.769531 136.867188 101.585938 136.53125 L 93.757812 152.027344 " fill-opacity="1" fill-rule="nonzero"/><path fill="#ffffff" d="M 92.820312 220.761719 L 98.222656 220.761719 L 98.222656 160.308594 L 92.820312 157.597656 L 92.820312 220.761719 " fill-opacity="1" fill-rule="nonzero"/><path fill="#ffffff" d="M 87.417969 231.5625 L 130.632812 231.5625 L 130.632812 226.160156 L 87.417969 226.160156 L 87.417969 231.5625 " fill-opacity="1" fill-rule="nonzero"/><g clip-path="url(#cd74a371ee)"><path fill="#ffffff" d="M 96.152344 253.167969 L 121.894531 253.167969 C 122.917969 253.167969 123.847656 252.601562 124.300781 251.683594 L 126.261719 247.769531 L 91.785156 247.769531 L 93.75 251.683594 C 94.203125 252.601562 95.132812 253.167969 96.152344 253.167969 " fill-opacity="1" fill-rule="nonzero"/></g><path fill="#ffffff" d="M 87.417969 242.367188 L 130.632812 242.367188 L 130.632812 236.964844 L 87.417969 236.964844 L 87.417969 242.367188 " fill-opacity="1" fill-rule="nonzero"/><g fill="#ffffff" fill-opacity="1"><g transform="translate(164.364932, 228.241982)"><g><path d="M 22.96875 0 C 18.195312 0 14.503906 -1.488281 11.890625 -4.46875 C 9.285156 -7.445312 7.984375 -11.5 7.984375 -16.625 L 7.828125 -60.953125 L 20.828125 -60.953125 L 21.125 -17.28125 C 21.125 -16.101562 21.394531 -15.15625 21.9375 -14.4375 C 22.476562 -13.726562 23.117188 -13.210938 23.859375 -12.890625 C 24.597656 -12.566406 25.300781 -12.34375 25.96875 -12.21875 C 26.632812 -12.101562 27.066406 -12.046875 27.265625 -12.046875 C 27.703125 -11.992188 27.90625 -11.5625 27.875 -10.75 C 27.851562 -9.9375 27.679688 -8.9375 27.359375 -7.75 C 27.046875 -6.570312 26.628906 -5.378906 26.109375 -4.171875 C 25.597656 -2.960938 25.054688 -1.960938 24.484375 -1.171875 C 23.921875 -0.390625 23.414062 0 22.96875 0 Z M 22.96875 0 "/></g></g></g><g fill="#ffffff" fill-opacity="1"><g transform="translate(194.359843, 228.241982)"><g><path d="M 5.609375 -51.046875 C 5.609375 -52.816406 6.234375 -54.34375 7.484375 -55.625 C 8.742188 -56.90625 10.210938 -57.546875 11.890625 -57.546875 C 13.617188 -57.546875 15.097656 -56.90625 16.328125 -55.625 C 17.554688 -54.34375 18.171875 -52.816406 18.171875 -51.046875 C 18.171875 -49.273438 17.554688 -47.75 16.328125 -46.46875 C 15.097656 -45.1875 13.617188 -44.546875 11.890625 -44.546875 C 10.210938 -44.546875 8.742188 -45.1875 7.484375 -46.46875 C 6.234375 -47.75 5.609375 -49.273438 5.609375 -51.046875 Z M 5.25 0 L 5.25 -38.859375 L 18.546875 -38.859375 L 18.546875 0 Z M 5.25 0 "/></g></g></g><g fill="#ffffff" fill-opacity="1"><g transform="translate(218.075045, 228.241982)"><g><path d="M 17.734375 -37.890625 L 17.734375 -32.4375 C 17.734375 -32.4375 17.988281 -32.765625 18.5 -33.421875 C 19.019531 -34.085938 19.785156 -34.851562 20.796875 -35.71875 C 21.804688 -36.582031 23.035156 -37.34375 24.484375 -38 C 25.941406 -38.664062 27.601562 -39 29.46875 -39 C 31.09375 -39 32.519531 -38.800781 33.75 -38.40625 C 34.988281 -38.019531 35.960938 -37.628906 36.671875 -37.234375 C 37.390625 -36.835938 37.75 -36.640625 37.75 -36.640625 L 32.28125 -25.5625 C 32.28125 -25.5625 32.007812 -25.734375 31.46875 -26.078125 C 30.925781 -26.421875 30.148438 -26.765625 29.140625 -27.109375 C 28.128906 -27.453125 26.910156 -27.625 25.484375 -27.625 C 23.765625 -27.625 22.382812 -27.28125 21.34375 -26.59375 C 20.3125 -25.90625 19.535156 -25.09375 19.015625 -24.15625 C 18.503906 -23.21875 18.160156 -22.34375 17.984375 -21.53125 C 17.816406 -20.71875 17.734375 -20.191406 17.734375 -19.953125 L 17.734375 0 L 4.65625 0 L 4.65625 -37.890625 Z M 17.734375 -37.890625 "/></g></g></g><g fill="#ffffff" fill-opacity="1"><g transform="translate(260.407717, 228.241982)"><g><path d="M 18.90625 -18.90625 C 18.90625 -16.351562 19.71875 -14.238281 21.34375 -12.5625 C 22.96875 -10.882812 25.113281 -10.046875 27.78125 -10.046875 C 30.289062 -10.046875 32.378906 -10.882812 34.046875 -12.5625 C 35.722656 -14.238281 36.5625 -16.351562 36.5625 -18.90625 C 36.5625 -21.519531 35.695312 -23.660156 33.96875 -25.328125 C 32.25 -27.003906 30.1875 -27.84375 27.78125 -27.84375 C 25.269531 -27.84375 23.160156 -27.003906 21.453125 -25.328125 C 19.753906 -23.660156 18.90625 -21.519531 18.90625 -18.90625 Z M 49.34375 -33.546875 L 49.34375 0 L 36.421875 0 L 36.421875 -4.28125 C 34.992188 -2.757812 33.179688 -1.476562 30.984375 -0.4375 C 28.796875 0.59375 26.421875 1.109375 23.859375 1.109375 C 20.171875 1.109375 16.910156 0.210938 14.078125 -1.578125 C 11.242188 -3.378906 9.023438 -5.796875 7.421875 -8.828125 C 5.828125 -11.859375 5.03125 -15.21875 5.03125 -18.90625 C 5.03125 -22.601562 5.828125 -25.976562 7.421875 -29.03125 C 9.023438 -32.082031 11.242188 -34.503906 14.078125 -36.296875 C 16.910156 -38.097656 20.171875 -39 23.859375 -39 C 24.847656 -39 26.347656 -39.007812 28.359375 -39.03125 C 30.378906 -39.0625 32.582031 -39.023438 34.96875 -38.921875 C 37.363281 -38.828125 39.644531 -38.59375 41.8125 -38.21875 C 43.976562 -37.851562 45.765625 -37.300781 47.171875 -36.5625 C 48.578125 -35.820312 49.300781 -34.816406 49.34375 -33.546875 Z M 49.34375 -33.546875 "/></g></g></g><g fill="#ffffff" fill-opacity="1"><g transform="translate(314.708818, 228.241982)"><g><path d="M 4.578125 -6.5 C 4.578125 -8.269531 5.203125 -9.796875 6.453125 -11.078125 C 7.710938 -12.359375 9.179688 -13 10.859375 -13 C 12.578125 -13 14.050781 -12.359375 15.28125 -11.078125 C 16.519531 -9.796875 17.140625 -8.269531 17.140625 -6.5 C 17.140625 -4.726562 16.519531 -3.203125 15.28125 -1.921875 C 14.050781 -0.640625 12.578125 0 10.859375 0 C 9.179688 0 7.710938 -0.640625 6.453125 -1.921875 C 5.203125 -3.203125 4.578125 -4.726562 4.578125 -6.5 Z M 4.578125 -6.5 "/></g></g></g><g fill="#ffffff" fill-opacity="1"><g transform="translate(183.905927, 248.624063)"><g><path d="M 3.453125 -3.453125 C 3.453125 -2.984375 3.597656 -2.59375 3.890625 -2.28125 C 4.191406 -1.976562 4.582031 -1.828125 5.0625 -1.828125 C 5.53125 -1.828125 5.914062 -1.976562 6.21875 -2.28125 C 6.519531 -2.59375 6.671875 -2.984375 6.671875 -3.453125 C 6.671875 -3.929688 6.515625 -4.320312 6.203125 -4.625 C 5.890625 -4.925781 5.507812 -5.078125 5.0625 -5.078125 C 4.601562 -5.078125 4.21875 -4.925781 3.90625 -4.625 C 3.601562 -4.320312 3.453125 -3.929688 3.453125 -3.453125 Z M 9 -6.125 L 9 0 L 6.640625 0 L 6.640625 -0.78125 C 6.378906 -0.5 6.050781 -0.265625 5.65625 -0.078125 C 5.257812 0.109375 4.828125 0.203125 4.359375 0.203125 C 3.679688 0.203125 3.082031 0.0390625 2.5625 -0.28125 C 2.050781 -0.613281 1.648438 -1.054688 1.359375 -1.609375 C 1.066406 -2.160156 0.921875 -2.773438 0.921875 -3.453125 C 0.921875 -4.128906 1.066406 -4.742188 1.359375 -5.296875 C 1.648438 -5.859375 2.050781 -6.300781 2.5625 -6.625 C 3.082031 -6.957031 3.679688 -7.125 4.359375 -7.125 C 4.535156 -7.125 4.804688 -7.125 5.171875 -7.125 C 5.546875 -7.132812 5.945312 -7.128906 6.375 -7.109375 C 6.8125 -7.085938 7.226562 -7.039062 7.625 -6.96875 C 8.019531 -6.90625 8.347656 -6.804688 8.609375 -6.671875 C 8.867188 -6.535156 9 -6.351562 9 -6.125 Z M 9 -6.125 "/></g></g></g><g fill="#ffffff" fill-opacity="1"><g transform="translate(193.819342, 248.624063)"><g><path d="M 1.375 -1.21875 C 1.375 -1.394531 1.398438 -1.539062 1.453125 -1.65625 C 1.503906 -1.78125 1.550781 -1.90625 1.59375 -2.03125 C 1.632812 -2.15625 1.644531 -2.296875 1.625 -2.453125 C 1.601562 -2.609375 1.507812 -2.800781 1.34375 -3.03125 C 1.34375 -3.03125 1.296875 -3.109375 1.203125 -3.265625 C 1.109375 -3.421875 1.007812 -3.628906 0.90625 -3.890625 C 0.8125 -4.148438 0.765625 -4.441406 0.765625 -4.765625 C 0.765625 -5.617188 1.070312 -6.28125 1.6875 -6.75 C 2.300781 -7.21875 3.125 -7.457031 4.15625 -7.46875 C 4.519531 -7.46875 4.820312 -7.445312 5.0625 -7.40625 C 5.300781 -7.375 5.507812 -7.328125 5.6875 -7.265625 C 5.875 -7.203125 6.0625 -7.132812 6.25 -7.0625 C 6.445312 -6.988281 6.6875 -6.921875 6.96875 -6.859375 C 7.207031 -6.835938 7.382812 -6.84375 7.5 -6.875 C 7.613281 -6.914062 7.707031 -6.96875 7.78125 -7.03125 C 7.851562 -7.09375 7.929688 -7.148438 8.015625 -7.203125 L 8.53125 -5.859375 C 8.457031 -5.691406 8.332031 -5.585938 8.15625 -5.546875 C 7.976562 -5.503906 7.8125 -5.492188 7.65625 -5.515625 C 7.507812 -5.535156 7.4375 -5.546875 7.4375 -5.546875 C 7.488281 -5.359375 7.519531 -5.171875 7.53125 -4.984375 C 7.550781 -4.804688 7.550781 -4.644531 7.53125 -4.5 C 7.519531 -4.320312 7.460938 -4.101562 7.359375 -3.84375 C 7.265625 -3.59375 7.113281 -3.335938 6.90625 -3.078125 C 6.707031 -2.828125 6.4375 -2.609375 6.09375 -2.421875 C 5.757812 -2.242188 5.34375 -2.144531 4.84375 -2.125 C 4.46875 -2.113281 4.191406 -2.109375 4.015625 -2.109375 C 3.847656 -2.109375 3.738281 -2.09375 3.6875 -2.0625 C 3.632812 -2.03125 3.609375 -1.984375 3.609375 -1.921875 C 3.609375 -1.804688 3.703125 -1.734375 3.890625 -1.703125 C 4.078125 -1.679688 4.335938 -1.671875 4.671875 -1.671875 C 5.546875 -1.671875 6.226562 -1.570312 6.71875 -1.375 C 7.21875 -1.175781 7.566406 -0.90625 7.765625 -0.5625 C 7.972656 -0.21875 8.078125 0.15625 8.078125 0.5625 C 8.078125 1.332031 7.738281 1.941406 7.0625 2.390625 C 6.382812 2.847656 5.390625 3.082031 4.078125 3.09375 C 3.410156 3.101562 2.867188 3.015625 2.453125 2.828125 C 2.035156 2.648438 1.710938 2.40625 1.484375 2.09375 C 1.265625 1.78125 1.101562 1.4375 1 1.0625 C 0.894531 0.695312 0.804688 0.328125 0.734375 -0.046875 C 0.941406 0.273438 1.210938 0.539062 1.546875 0.75 C 1.890625 0.96875 2.253906 1.132812 2.640625 1.25 C 3.035156 1.363281 3.425781 1.429688 3.8125 1.453125 C 4.207031 1.484375 4.5625 1.46875 4.875 1.40625 C 5.195312 1.351562 5.453125 1.265625 5.640625 1.140625 C 5.835938 1.015625 5.925781 0.863281 5.90625 0.6875 C 5.875 0.40625 5.660156 0.238281 5.265625 0.1875 C 4.878906 0.132812 4.332031 0.109375 3.625 0.109375 C 3.21875 0.109375 2.84375 0.0546875 2.5 -0.046875 C 2.164062 -0.160156 1.894531 -0.3125 1.6875 -0.5 C 1.476562 -0.695312 1.375 -0.9375 1.375 -1.21875 Z M 2.84375 -4.625 C 2.863281 -4.289062 3.003906 -4.019531 3.265625 -3.8125 C 3.523438 -3.601562 3.832031 -3.519531 4.1875 -3.5625 C 4.570312 -3.601562 4.867188 -3.753906 5.078125 -4.015625 C 5.285156 -4.285156 5.378906 -4.585938 5.359375 -4.921875 C 5.335938 -5.265625 5.203125 -5.535156 4.953125 -5.734375 C 4.703125 -5.941406 4.394531 -6.023438 4.03125 -5.984375 C 3.675781 -5.953125 3.382812 -5.800781 3.15625 -5.53125 C 2.925781 -5.269531 2.820312 -4.96875 2.84375 -4.625 Z M 2.84375 -4.625 "/></g></g></g><g fill="#ffffff" fill-opacity="1"><g transform="translate(203.09884, 248.624063)"><g><path d="M 3.359375 -4.28125 L 5.984375 -4.28125 C 5.929688 -4.644531 5.785156 -4.945312 5.546875 -5.1875 C 5.316406 -5.4375 5.023438 -5.5625 4.671875 -5.5625 C 4.265625 -5.5625 3.945312 -5.425781 3.71875 -5.15625 C 3.5 -4.882812 3.378906 -4.59375 3.359375 -4.28125 Z M 6.46875 -2.328125 L 8.203125 -1.609375 C 7.804688 -0.953125 7.300781 -0.484375 6.6875 -0.203125 C 6.070312 0.0664062 5.378906 0.203125 4.609375 0.203125 C 4.078125 0.203125 3.582031 0.109375 3.125 -0.078125 C 2.664062 -0.265625 2.265625 -0.523438 1.921875 -0.859375 C 1.578125 -1.203125 1.304688 -1.59375 1.109375 -2.03125 C 0.910156 -2.476562 0.8125 -2.953125 0.8125 -3.453125 C 0.8125 -3.953125 0.910156 -4.425781 1.109375 -4.875 C 1.304688 -5.320312 1.578125 -5.710938 1.921875 -6.046875 C 2.265625 -6.378906 2.664062 -6.640625 3.125 -6.828125 C 3.582031 -7.023438 4.078125 -7.125 4.609375 -7.125 C 5.304688 -7.125 5.929688 -6.960938 6.484375 -6.640625 C 7.046875 -6.316406 7.488281 -5.851562 7.8125 -5.25 C 8.144531 -4.65625 8.3125 -3.925781 8.3125 -3.0625 L 3.296875 -3.0625 C 3.296875 -2.769531 3.382812 -2.5 3.5625 -2.25 C 3.75 -2 3.992188 -1.8125 4.296875 -1.6875 C 4.609375 -1.570312 4.953125 -1.554688 5.328125 -1.640625 C 5.703125 -1.722656 6.082031 -1.953125 6.46875 -2.328125 Z M 1.5625 -9.140625 L 4.546875 -11.328125 L 7.53125 -9.140625 L 6.609375 -7.921875 L 4.546875 -9.421875 L 2.484375 -7.921875 Z M 1.5625 -9.140625 "/></g></g></g><g fill="#ffffff" fill-opacity="1"><g transform="translate(212.202994, 248.624063)"><g><path d="M 3.453125 0 L 0.96875 0 L 0.96875 -7.015625 L 2.859375 -7.015625 L 2.859375 -6.625 C 3.085938 -6.769531 3.363281 -6.890625 3.6875 -6.984375 C 4.007812 -7.078125 4.390625 -7.125 4.828125 -7.125 C 6.117188 -7.125 7.0625 -6.867188 7.65625 -6.359375 C 8.257812 -5.859375 8.5625 -5.03125 8.5625 -3.875 L 8.5625 0 L 6.171875 0 L 6.171875 -3.296875 C 6.171875 -3.972656 6.066406 -4.453125 5.859375 -4.734375 C 5.660156 -5.023438 5.316406 -5.171875 4.828125 -5.171875 C 4.328125 -5.171875 3.972656 -5.023438 3.765625 -4.734375 C 3.554688 -4.453125 3.453125 -3.972656 3.453125 -3.296875 Z M 3.453125 0 "/></g></g></g><g fill="#ffffff" fill-opacity="1"><g transform="translate(221.725264, 248.624063)"><g><path d="M 6.9375 -0.421875 C 6.9375 -0.421875 6.847656 -0.367188 6.671875 -0.265625 C 6.492188 -0.160156 6.234375 -0.0546875 5.890625 0.046875 C 5.546875 0.148438 5.117188 0.203125 4.609375 0.203125 C 4.117188 0.203125 3.644531 0.109375 3.1875 -0.078125 C 2.726562 -0.265625 2.316406 -0.523438 1.953125 -0.859375 C 1.585938 -1.191406 1.300781 -1.578125 1.09375 -2.015625 C 0.882812 -2.460938 0.78125 -2.9375 0.78125 -3.4375 C 0.78125 -3.945312 0.882812 -4.425781 1.09375 -4.875 C 1.300781 -5.320312 1.582031 -5.710938 1.9375 -6.046875 C 2.300781 -6.378906 2.710938 -6.640625 3.171875 -6.828125 C 3.628906 -7.023438 4.109375 -7.125 4.609375 -7.125 C 5.117188 -7.125 5.546875 -7.066406 5.890625 -6.953125 C 6.234375 -6.847656 6.492188 -6.738281 6.671875 -6.625 C 6.847656 -6.519531 6.9375 -6.46875 6.9375 -6.46875 L 6.125 -4.84375 C 6.125 -4.84375 6.019531 -4.894531 5.8125 -5 C 5.601562 -5.113281 5.320312 -5.171875 4.96875 -5.171875 C 4.664062 -5.171875 4.390625 -5.09375 4.140625 -4.9375 C 3.890625 -4.78125 3.6875 -4.570312 3.53125 -4.3125 C 3.382812 -4.0625 3.3125 -3.78125 3.3125 -3.46875 C 3.3125 -3.15625 3.382812 -2.867188 3.53125 -2.609375 C 3.6875 -2.347656 3.890625 -2.140625 4.140625 -1.984375 C 4.390625 -1.828125 4.664062 -1.75 4.96875 -1.75 C 5.320312 -1.75 5.601562 -1.800781 5.8125 -1.90625 C 6.019531 -2.019531 6.125 -2.078125 6.125 -2.078125 Z M 6.9375 -0.421875 "/></g></g></g><g fill="#ffffff" fill-opacity="1"><g transform="translate(229.440198, 248.624063)"><g><path d="M 1.03125 -9.3125 C 1.03125 -9.632812 1.144531 -9.910156 1.375 -10.140625 C 1.601562 -10.378906 1.867188 -10.5 2.171875 -10.5 C 2.484375 -10.5 2.75 -10.378906 2.96875 -10.140625 C 3.195312 -9.910156 3.3125 -9.632812 3.3125 -9.3125 C 3.3125 -8.988281 3.195312 -8.707031 2.96875 -8.46875 C 2.75 -8.238281 2.484375 -8.125 2.171875 -8.125 C 1.867188 -8.125 1.601562 -8.238281 1.375 -8.46875 C 1.144531 -8.707031 1.03125 -8.988281 1.03125 -9.3125 Z M 0.953125 0 L 0.953125 -7.09375 L 3.390625 -7.09375 L 3.390625 0 Z M 0.953125 0 "/></g></g></g><g fill="#ffffff" fill-opacity="1"><g transform="translate(233.769735, 248.624063)"><g><path d="M 3.453125 -3.453125 C 3.453125 -2.984375 3.597656 -2.59375 3.890625 -2.28125 C 4.191406 -1.976562 4.582031 -1.828125 5.0625 -1.828125 C 5.53125 -1.828125 5.914062 -1.976562 6.21875 -2.28125 C 6.519531 -2.59375 6.671875 -2.984375 6.671875 -3.453125 C 6.671875 -3.929688 6.515625 -4.320312 6.203125 -4.625 C 5.890625 -4.925781 5.507812 -5.078125 5.0625 -5.078125 C 4.601562 -5.078125 4.21875 -4.925781 3.90625 -4.625 C 3.601562 -4.320312 3.453125 -3.929688 3.453125 -3.453125 Z M 9 -6.125 L 9 0 L 6.640625 0 L 6.640625 -0.78125 C 6.378906 -0.5 6.050781 -0.265625 5.65625 -0.078125 C 5.257812 0.109375 4.828125 0.203125 4.359375 0.203125 C 3.679688 0.203125 3.082031 0.0390625 2.5625 -0.28125 C 2.050781 -0.613281 1.648438 -1.054688 1.359375 -1.609375 C 1.066406 -2.160156 0.921875 -2.773438 0.921875 -3.453125 C 0.921875 -4.128906 1.066406 -4.742188 1.359375 -5.296875 C 1.648438 -5.859375 2.050781 -6.300781 2.5625 -6.625 C 3.082031 -6.957031 3.679688 -7.125 4.359375 -7.125 C 4.535156 -7.125 4.804688 -7.125 5.171875 -7.125 C 5.546875 -7.132812 5.945312 -7.128906 6.375 -7.109375 C 6.8125 -7.085938 7.226562 -7.039062 7.625 -6.96875 C 8.019531 -6.90625 8.347656 -6.804688 8.609375 -6.671875 C 8.867188 -6.535156 9 -6.351562 9 -6.125 Z M 9 -6.125 "/></g></g></g><g fill="#ffffff" fill-opacity="1"><g transform="translate(243.68315, 248.624063)"><g/></g></g><g fill="#ffffff" fill-opacity="1"><g transform="translate(245.922099, 248.624063)"><g><path d="M 3.46875 -3.453125 C 3.46875 -2.984375 3.613281 -2.59375 3.90625 -2.28125 C 4.207031 -1.976562 4.597656 -1.828125 5.078125 -1.828125 C 5.484375 -1.828125 5.828125 -1.941406 6.109375 -2.171875 C 6.398438 -2.410156 6.582031 -2.722656 6.65625 -3.109375 L 6.65625 -3.796875 C 6.582031 -4.179688 6.394531 -4.488281 6.09375 -4.71875 C 5.800781 -4.957031 5.460938 -5.078125 5.078125 -5.078125 C 4.628906 -5.078125 4.25 -4.925781 3.9375 -4.625 C 3.625 -4.320312 3.46875 -3.929688 3.46875 -3.453125 Z M 9.015625 0 L 6.65625 0 L 6.65625 -0.78125 C 6.40625 -0.5 6.078125 -0.265625 5.671875 -0.078125 C 5.273438 0.109375 4.84375 0.203125 4.375 0.203125 C 3.695312 0.203125 3.097656 0.0390625 2.578125 -0.28125 C 2.066406 -0.613281 1.664062 -1.054688 1.375 -1.609375 C 1.082031 -2.160156 0.9375 -2.773438 0.9375 -3.453125 C 0.9375 -4.128906 1.082031 -4.742188 1.375 -5.296875 C 1.664062 -5.859375 2.066406 -6.300781 2.578125 -6.625 C 3.097656 -6.957031 3.695312 -7.125 4.375 -7.125 C 4.570312 -7.125 4.882812 -7.125 5.3125 -7.125 C 5.738281 -7.132812 6.179688 -7.125 6.640625 -7.09375 L 6.640625 -11.59375 L 9.015625 -11.59375 Z M 9.015625 0 "/></g></g></g><g fill="#ffffff" fill-opacity="1"><g transform="translate(255.929927, 248.624063)"><g><path d="M 3.375 -4.28125 L 6 -4.28125 C 5.945312 -4.644531 5.800781 -4.945312 5.5625 -5.1875 C 5.332031 -5.4375 5.039062 -5.5625 4.6875 -5.5625 C 4.28125 -5.5625 3.960938 -5.425781 3.734375 -5.15625 C 3.503906 -4.882812 3.382812 -4.59375 3.375 -4.28125 Z M 6.484375 -2.328125 L 8.21875 -1.609375 C 7.820312 -0.953125 7.316406 -0.484375 6.703125 -0.203125 C 6.085938 0.0664062 5.394531 0.203125 4.625 0.203125 C 4.101562 0.203125 3.613281 0.109375 3.15625 -0.078125 C 2.695312 -0.265625 2.289062 -0.523438 1.9375 -0.859375 C 1.59375 -1.203125 1.320312 -1.59375 1.125 -2.03125 C 0.925781 -2.476562 0.828125 -2.953125 0.828125 -3.453125 C 0.828125 -3.953125 0.925781 -4.425781 1.125 -4.875 C 1.320312 -5.320312 1.59375 -5.710938 1.9375 -6.046875 C 2.289062 -6.378906 2.695312 -6.640625 3.15625 -6.828125 C 3.613281 -7.023438 4.101562 -7.125 4.625 -7.125 C 5.320312 -7.125 5.953125 -6.960938 6.515625 -6.640625 C 7.078125 -6.316406 7.519531 -5.851562 7.84375 -5.25 C 8.164062 -4.65625 8.328125 -3.925781 8.328125 -3.0625 L 3.296875 -3.0625 C 3.296875 -2.769531 3.390625 -2.5 3.578125 -2.25 C 3.765625 -2 4.007812 -1.8125 4.3125 -1.6875 C 4.625 -1.570312 4.96875 -1.554688 5.34375 -1.640625 C 5.726562 -1.722656 6.109375 -1.953125 6.484375 -2.328125 Z M 6.484375 -2.328125 "/></g></g></g><g fill="#ffffff" fill-opacity="1"><g transform="translate(265.088039, 248.624063)"><g/></g></g><g fill="#ffffff" fill-opacity="1"><g transform="translate(267.326988, 248.624063)"><g><path d="M 3.46875 -3.453125 C 3.46875 -2.984375 3.613281 -2.59375 3.90625 -2.28125 C 4.207031 -1.976562 4.597656 -1.828125 5.078125 -1.828125 C 5.484375 -1.828125 5.828125 -1.941406 6.109375 -2.171875 C 6.398438 -2.410156 6.582031 -2.722656 6.65625 -3.109375 L 6.65625 -3.796875 C 6.582031 -4.179688 6.394531 -4.488281 6.09375 -4.71875 C 5.800781 -4.957031 5.460938 -5.078125 5.078125 -5.078125 C 4.628906 -5.078125 4.25 -4.925781 3.9375 -4.625 C 3.625 -4.320312 3.46875 -3.929688 3.46875 -3.453125 Z M 9.015625 0 L 6.65625 0 L 6.65625 -0.78125 C 6.40625 -0.5 6.078125 -0.265625 5.671875 -0.078125 C 5.273438 0.109375 4.84375 0.203125 4.375 0.203125 C 3.695312 0.203125 3.097656 0.0390625 2.578125 -0.28125 C 2.066406 -0.613281 1.664062 -1.054688 1.375 -1.609375 C 1.082031 -2.160156 0.9375 -2.773438 0.9375 -3.453125 C 0.9375 -4.128906 1.082031 -4.742188 1.375 -5.296875 C 1.664062 -5.859375 2.066406 -6.300781 2.578125 -6.625 C 3.097656 -6.957031 3.695312 -7.125 4.375 -7.125 C 4.570312 -7.125 4.882812 -7.125 5.3125 -7.125 C 5.738281 -7.132812 6.179688 -7.125 6.640625 -7.09375 L 6.640625 -11.59375 L 9.015625 -11.59375 Z M 9.015625 0 "/></g></g></g><g fill="#ffffff" fill-opacity="1"><g transform="translate(277.334816, 248.624063)"><g><path d="M 3.375 -4.28125 L 6 -4.28125 C 5.945312 -4.644531 5.800781 -4.945312 5.5625 -5.1875 C 5.332031 -5.4375 5.039062 -5.5625 4.6875 -5.5625 C 4.28125 -5.5625 3.960938 -5.425781 3.734375 -5.15625 C 3.503906 -4.882812 3.382812 -4.59375 3.375 -4.28125 Z M 6.484375 -2.328125 L 8.21875 -1.609375 C 7.820312 -0.953125 7.316406 -0.484375 6.703125 -0.203125 C 6.085938 0.0664062 5.394531 0.203125 4.625 0.203125 C 4.101562 0.203125 3.613281 0.109375 3.15625 -0.078125 C 2.695312 -0.265625 2.289062 -0.523438 1.9375 -0.859375 C 1.59375 -1.203125 1.320312 -1.59375 1.125 -2.03125 C 0.925781 -2.476562 0.828125 -2.953125 0.828125 -3.453125 C 0.828125 -3.953125 0.925781 -4.425781 1.125 -4.875 C 1.320312 -5.320312 1.59375 -5.710938 1.9375 -6.046875 C 2.289062 -6.378906 2.695312 -6.640625 3.15625 -6.828125 C 3.613281 -7.023438 4.101562 -7.125 4.625 -7.125 C 5.320312 -7.125 5.953125 -6.960938 6.515625 -6.640625 C 7.078125 -6.316406 7.519531 -5.851562 7.84375 -5.25 C 8.164062 -4.65625 8.328125 -3.925781 8.328125 -3.0625 L 3.296875 -3.0625 C 3.296875 -2.769531 3.390625 -2.5 3.578125 -2.25 C 3.765625 -2 4.007812 -1.8125 4.3125 -1.6875 C 4.625 -1.570312 4.96875 -1.554688 5.34375 -1.640625 C 5.726562 -1.722656 6.109375 -1.953125 6.484375 -2.328125 Z M 6.484375 -2.328125 "/></g></g></g><g fill="#ffffff" fill-opacity="1"><g transform="translate(286.492929, 248.624063)"><g><path d="M 1.6875 -2.359375 C 2.21875 -1.953125 2.664062 -1.707031 3.03125 -1.625 C 3.394531 -1.550781 3.671875 -1.566406 3.859375 -1.671875 C 4.046875 -1.773438 4.140625 -1.90625 4.140625 -2.0625 C 4.128906 -2.269531 4.023438 -2.457031 3.828125 -2.625 C 3.628906 -2.800781 3.382812 -2.96875 3.09375 -3.125 C 2.8125 -3.28125 2.523438 -3.441406 2.234375 -3.609375 C 1.941406 -3.773438 1.695312 -3.960938 1.5 -4.171875 C 1.300781 -4.378906 1.203125 -4.617188 1.203125 -4.890625 C 1.203125 -5.148438 1.273438 -5.421875 1.421875 -5.703125 C 1.566406 -5.992188 1.785156 -6.253906 2.078125 -6.484375 C 2.367188 -6.722656 2.726562 -6.90625 3.15625 -7.03125 C 3.59375 -7.15625 4.09375 -7.1875 4.65625 -7.125 C 5.21875 -7.0625 5.847656 -6.878906 6.546875 -6.578125 L 5.765625 -5.015625 C 5.296875 -5.222656 4.914062 -5.359375 4.625 -5.421875 C 4.332031 -5.484375 4.097656 -5.492188 3.921875 -5.453125 C 3.753906 -5.421875 3.640625 -5.363281 3.578125 -5.28125 C 3.515625 -5.195312 3.484375 -5.113281 3.484375 -5.03125 C 3.484375 -4.863281 3.585938 -4.707031 3.796875 -4.5625 C 4.003906 -4.425781 4.265625 -4.28125 4.578125 -4.125 C 4.898438 -3.976562 5.21875 -3.816406 5.53125 -3.640625 C 5.851562 -3.460938 6.117188 -3.253906 6.328125 -3.015625 C 6.546875 -2.773438 6.65625 -2.488281 6.65625 -2.15625 C 6.644531 -1.75 6.519531 -1.378906 6.28125 -1.046875 C 6.039062 -0.710938 5.710938 -0.4375 5.296875 -0.21875 C 4.878906 -0.0078125 4.410156 0.117188 3.890625 0.171875 C 3.367188 0.222656 2.832031 0.179688 2.28125 0.046875 C 1.738281 -0.0859375 1.21875 -0.347656 0.71875 -0.734375 Z M 1.6875 -2.359375 "/></g></g></g><g fill="#ffffff" fill-opacity="1"><g transform="translate(293.857184, 248.624063)"><g><path d="M 1.03125 -9.3125 C 1.03125 -9.632812 1.144531 -9.910156 1.375 -10.140625 C 1.601562 -10.378906 1.867188 -10.5 2.171875 -10.5 C 2.484375 -10.5 2.75 -10.378906 2.96875 -10.140625 C 3.195312 -9.910156 3.3125 -9.632812 3.3125 -9.3125 C 3.3125 -8.988281 3.195312 -8.707031 2.96875 -8.46875 C 2.75 -8.238281 2.484375 -8.125 2.171875 -8.125 C 1.867188 -8.125 1.601562 -8.238281 1.375 -8.46875 C 1.144531 -8.707031 1.03125 -8.988281 1.03125 -9.3125 Z M 0.953125 0 L 0.953125 -7.09375 L 3.390625 -7.09375 L 3.390625 0 Z M 0.953125 0 "/></g></g></g><g fill="#ffffff" fill-opacity="1"><g transform="translate(298.186721, 248.624063)"><g><path d="M 1.375 -1.21875 C 1.375 -1.394531 1.398438 -1.539062 1.453125 -1.65625 C 1.503906 -1.78125 1.550781 -1.90625 1.59375 -2.03125 C 1.632812 -2.15625 1.644531 -2.296875 1.625 -2.453125 C 1.601562 -2.609375 1.507812 -2.800781 1.34375 -3.03125 C 1.34375 -3.03125 1.296875 -3.109375 1.203125 -3.265625 C 1.109375 -3.421875 1.007812 -3.628906 0.90625 -3.890625 C 0.8125 -4.148438 0.765625 -4.441406 0.765625 -4.765625 C 0.765625 -5.617188 1.070312 -6.28125 1.6875 -6.75 C 2.300781 -7.21875 3.125 -7.457031 4.15625 -7.46875 C 4.519531 -7.46875 4.820312 -7.445312 5.0625 -7.40625 C 5.300781 -7.375 5.507812 -7.328125 5.6875 -7.265625 C 5.875 -7.203125 6.0625 -7.132812 6.25 -7.0625 C 6.445312 -6.988281 6.6875 -6.921875 6.96875 -6.859375 C 7.207031 -6.835938 7.382812 -6.84375 7.5 -6.875 C 7.613281 -6.914062 7.707031 -6.96875 7.78125 -7.03125 C 7.851562 -7.09375 7.929688 -7.148438 8.015625 -7.203125 L 8.53125 -5.859375 C 8.457031 -5.691406 8.332031 -5.585938 8.15625 -5.546875 C 7.976562 -5.503906 7.8125 -5.492188 7.65625 -5.515625 C 7.507812 -5.535156 7.4375 -5.546875 7.4375 -5.546875 C 7.488281 -5.359375 7.519531 -5.171875 7.53125 -4.984375 C 7.550781 -4.804688 7.550781 -4.644531 7.53125 -4.5 C 7.519531 -4.320312 7.460938 -4.101562 7.359375 -3.84375 C 7.265625 -3.59375 7.113281 -3.335938 6.90625 -3.078125 C 6.707031 -2.828125 6.4375 -2.609375 6.09375 -2.421875 C 5.757812 -2.242188 5.34375 -2.144531 4.84375 -2.125 C 4.46875 -2.113281 4.191406 -2.109375 4.015625 -2.109375 C 3.847656 -2.109375 3.738281 -2.09375 3.6875 -2.0625 C 3.632812 -2.03125 3.609375 -1.984375 3.609375 -1.921875 C 3.609375 -1.804688 3.703125 -1.734375 3.890625 -1.703125 C 4.078125 -1.679688 4.335938 -1.671875 4.671875 -1.671875 C 5.546875 -1.671875 6.226562 -1.570312 6.71875 -1.375 C 7.21875 -1.175781 7.566406 -0.90625 7.765625 -0.5625 C 7.972656 -0.21875 8.078125 0.15625 8.078125 0.5625 C 8.078125 1.332031 7.738281 1.941406 7.0625 2.390625 C 6.382812 2.847656 5.390625 3.082031 4.078125 3.09375 C 3.410156 3.101562 2.867188 3.015625 2.453125 2.828125 C 2.035156 2.648438 1.710938 2.40625 1.484375 2.09375 C 1.265625 1.78125 1.101562 1.4375 1 1.0625 C 0.894531 0.695312 0.804688 0.328125 0.734375 -0.046875 C 0.941406 0.273438 1.210938 0.539062 1.546875 0.75 C 1.890625 0.96875 2.253906 1.132812 2.640625 1.25 C 3.035156 1.363281 3.425781 1.429688 3.8125 1.453125 C 4.207031 1.484375 4.5625 1.46875 4.875 1.40625 C 5.195312 1.351562 5.453125 1.265625 5.640625 1.140625 C 5.835938 1.015625 5.925781 0.863281 5.90625 0.6875 C 5.875 0.40625 5.660156 0.238281 5.265625 0.1875 C 4.878906 0.132812 4.332031 0.109375 3.625 0.109375 C 3.21875 0.109375 2.84375 0.0546875 2.5 -0.046875 C 2.164062 -0.160156 1.894531 -0.3125 1.6875 -0.5 C 1.476562 -0.695312 1.375 -0.9375 1.375 -1.21875 Z M 2.84375 -4.625 C 2.863281 -4.289062 3.003906 -4.019531 3.265625 -3.8125 C 3.523438 -3.601562 3.832031 -3.519531 4.1875 -3.5625 C 4.570312 -3.601562 4.867188 -3.753906 5.078125 -4.015625 C 5.285156 -4.285156 5.378906 -4.585938 5.359375 -4.921875 C 5.335938 -5.265625 5.203125 -5.535156 4.953125 -5.734375 C 4.703125 -5.941406 4.394531 -6.023438 4.03125 -5.984375 C 3.675781 -5.953125 3.382812 -5.800781 3.15625 -5.53125 C 2.925781 -5.269531 2.820312 -4.96875 2.84375 -4.625 Z M 2.84375 -4.625 "/></g></g></g><g fill="#ffffff" fill-opacity="1"><g transform="translate(307.46622, 248.624063)"><g><path d="M 3.453125 0 L 0.96875 0 L 0.96875 -7.015625 L 2.859375 -7.015625 L 2.859375 -6.625 C 3.085938 -6.769531 3.363281 -6.890625 3.6875 -6.984375 C 4.007812 -7.078125 4.390625 -7.125 4.828125 -7.125 C 6.117188 -7.125 7.0625 -6.867188 7.65625 -6.359375 C 8.257812 -5.859375 8.5625 -5.03125 8.5625 -3.875 L 8.5625 0 L 6.171875 0 L 6.171875 -3.296875 C 6.171875 -3.972656 6.066406 -4.453125 5.859375 -4.734375 C 5.660156 -5.023438 5.316406 -5.171875 4.828125 -5.171875 C 4.328125 -5.171875 3.972656 -5.023438 3.765625 -4.734375 C 3.554688 -4.453125 3.453125 -3.972656 3.453125 -3.296875 Z M 3.453125 0 "/></g></g></g></svg>